<svg width="19" height="20" viewBox="0 0 19 20" fill="none" xmlns="http://www.w3.org/2000/svg">
<g id="ArrowLeft">
<path id="Vector" d="M16.625 9.99998C16.625 10.1657 16.5624 10.3247 16.4511 10.4419C16.3397 10.5591 16.1887 10.625 16.0312 10.625H4.40189L8.73256 15.1828C8.78772 15.2409 8.83148 15.3098 8.86134 15.3857C8.89119 15.4615 8.90656 15.5429 8.90656 15.625C8.90656 15.7071 8.89119 15.7884 8.86134 15.8643C8.83148 15.9402 8.78772 16.0091 8.73256 16.0672C8.67739 16.1252 8.6119 16.1713 8.53982 16.2027C8.46775 16.2342 8.39049 16.2503 8.31248 16.2503C8.23446 16.2503 8.15721 16.2342 8.08513 16.2027C8.01306 16.1713 7.94757 16.1252 7.8924 16.0672L2.54865 10.4422C2.49345 10.3841 2.44965 10.3152 2.41977 10.2393C2.38989 10.1634 2.37451 10.0821 2.37451 9.99998C2.37451 9.91785 2.38989 9.83652 2.41977 9.76064C2.44965 9.68477 2.49345 9.61584 2.54865 9.55779L7.8924 3.93279C8.00381 3.81552 8.15492 3.74963 8.31248 3.74963C8.47004 3.74963 8.62115 3.81552 8.73256 3.93279C8.84397 4.05007 8.90656 4.20913 8.90656 4.37498C8.90656 4.54083 8.84397 4.69989 8.73256 4.81717L4.40189 9.37498H16.0312C16.1887 9.37498 16.3397 9.44083 16.4511 9.55804C16.5624 9.67525 16.625 9.83422 16.625 9.99998Z" fill="black"/>
</g>
</svg>
