<svg width="20" height="24" viewBox="0 0 20 24" fill="none" xmlns="http://www.w3.org/2000/svg">
<path d="M19.7074 10.7075C19.6146 10.8005 19.5043 10.8742 19.3829 10.9246C19.2615 10.9749 19.1314 11.0008 18.9999 11.0008C18.8685 11.0008 18.7384 10.9749 18.617 10.9246C18.4956 10.8742 18.3853 10.8005 18.2924 10.7075L10.9999 3.41374V23C10.9999 23.2652 10.8946 23.5196 10.7071 23.7071C10.5195 23.8946 10.2652 24 9.99995 24C9.73473 24 9.48038 23.8946 9.29284 23.7071C9.1053 23.5196 8.99995 23.2652 8.99995 23V3.41374L1.70745 10.7075C1.5198 10.8951 1.26531 11.0005 0.999946 11.0005C0.734582 11.0005 0.480086 10.8951 0.292446 10.7075C0.104805 10.5199 -0.00061035 10.2654 -0.000610352 9.99999C-0.000610354 9.73463 0.104805 9.48013 0.292446 9.29249L9.29245 0.292493C9.38532 0.199517 9.49561 0.125758 9.61701 0.0754335C9.7384 0.0251092 9.86853 -0.000793457 9.99995 -0.000793457C10.1314 -0.000793457 10.2615 0.0251092 10.3829 0.0754335C10.5043 0.125758 10.6146 0.199517 10.7074 0.292493L19.7074 9.29249C19.8004 9.38537 19.8742 9.49566 19.9245 9.61705C19.9748 9.73845 20.0007 9.86858 20.0007 9.99999C20.0007 10.1314 19.9748 10.2615 19.9245 10.3829C19.8742 10.5043 19.8004 10.6146 19.7074 10.7075Z" fill="#4C5958"/>
</svg>
