<?xml version="1.0" encoding="UTF-8"?>
<svg id="Layer_2" data-name="Layer 2" xmlns="http://www.w3.org/2000/svg" viewBox="0 0 238.5 547">
  <defs>
    <style>
      .cls-1 {
        fill: #fff;
      }

      .cls-1, .cls-2 {
        stroke-width: 0px;
      }

      .cls-2 {
        fill: #12403b;
      }
    </style>
  </defs>
  <g id="Layer_1-2" data-name="Layer 1">
    <circle class="cls-2" cx="169" cy="15" r="15"/>
    <g>
      <circle class="cls-2" cx="143.5" cy="66" r="20"/>
      <circle class="cls-1" cx="143.5" cy="66" r="9"/>
    </g>
    <g>
      <circle class="cls-2" cx="108" cy="136.5" r="25"/>
      <circle class="cls-1" cx="108" cy="136.5" r="9"/>
    </g>
    <rect class="cls-2" x="128" y="129.5" width="70" height="15" rx="1.29" ry="1.29"/>
    <g>
      <circle class="cls-2" cx="64.5" cy="212" r="25"/>
      <circle class="cls-1" cx="64.5" cy="212" r="9"/>
    </g>
    <rect class="cls-2" x="83.5" y="204" width="134" height="15" rx="1.79" ry="1.79"/>
    <circle class="cls-2" cx="225.5" cy="212" r="13"/>
    <g>
      <circle class="cls-2" cx="18" cy="276" r="18"/>
      <circle class="cls-1" cx="17.5" cy="276.5" r="6.5"/>
    </g>
    <rect class="cls-2" x="31" y="269" width="176" height="15" rx="2.05" ry="2.05"/>
    <g>
      <circle class="cls-2" cx="220" cy="276" r="18"/>
      <circle class="cls-1" cx="220.5" cy="276.5" r="6.5"/>
    </g>
    <g>
      <circle class="cls-2" cx="201" cy="341" r="25"/>
      <circle class="cls-1" cx="201" cy="341" r="9"/>
    </g>
    <rect class="cls-2" x="47" y="333" width="134" height="15" rx="1.79" ry="1.79" transform="translate(228 681) rotate(180)"/>
    <circle class="cls-2" cx="41" cy="341" r="13"/>
    <g>
      <circle class="cls-2" cx="159" cy="412" r="25"/>
      <circle class="cls-1" cx="159" cy="412" r="9"/>
    </g>
    <rect class="cls-2" x="69" y="405" width="70" height="15" rx="1.29" ry="1.29" transform="translate(208 825) rotate(180)"/>
    <circle class="cls-2" cx="99" cy="532" r="15"/>
    <g>
      <circle class="cls-2" cx="123" cy="481" r="20"/>
      <circle class="cls-1" cx="123" cy="481" r="9"/>
    </g>
  </g>
</svg>