<svg width="28" height="28" viewBox="0 0 28 28" fill="none" xmlns="http://www.w3.org/2000/svg">
<path d="M26.862 6.63519C27.1677 5.64918 27.2657 4.61054 27.15 3.58475C27.0342 2.55897 26.7072 1.56829 26.1895 0.675187C26.1017 0.523135 25.9754 0.396876 25.8234 0.309106C25.6713 0.221335 25.4988 0.175148 25.3232 0.175187C24.1585 0.172749 23.0093 0.442767 21.9675 0.963668C20.9257 1.48457 20.0202 2.24191 19.3232 3.17519H16.3232C15.6263 2.24191 14.7208 1.48457 13.679 0.963668C12.6372 0.442767 11.488 0.172749 10.3232 0.175187C10.1477 0.175148 9.97518 0.221335 9.82311 0.309106C9.67105 0.396876 9.54478 0.523135 9.45699 0.675187C8.9393 1.56829 8.61227 2.55897 8.49653 3.58475C8.38078 4.61054 8.47883 5.64918 8.78449 6.63519C8.16665 7.71358 7.83569 8.93241 7.82324 10.1752V11.1752C7.82535 12.8672 8.43958 14.5013 9.55252 15.7758C10.6655 17.0502 12.2019 17.879 13.8782 18.1089C13.194 18.9845 12.8226 20.064 12.8232 21.1752V22.1752H9.82324C9.02759 22.1752 8.26453 21.8591 7.70192 21.2965C7.13931 20.7339 6.82324 19.9708 6.82324 19.1752C6.82324 18.5186 6.69391 17.8684 6.44264 17.2618C6.19137 16.6551 5.82307 16.1039 5.35878 15.6397C4.89448 15.1754 4.34329 14.8071 3.73666 14.5558C3.13003 14.3045 2.47985 14.1752 1.82324 14.1752C1.55803 14.1752 1.30367 14.2805 1.11614 14.4681C0.928599 14.6556 0.823242 14.91 0.823242 15.1752C0.823242 15.4404 0.928599 15.6948 1.11614 15.8823C1.30367 16.0698 1.55803 16.1752 1.82324 16.1752C2.61889 16.1752 3.38195 16.4913 3.94456 17.0539C4.50717 17.6165 4.82324 18.3795 4.82324 19.1752C4.82324 20.5013 5.35003 21.773 6.28771 22.7107C7.22539 23.6484 8.49716 24.1752 9.82324 24.1752H12.8232V26.1752C12.8232 26.4404 12.9286 26.6948 13.1161 26.8823C13.3037 27.0698 13.558 27.1752 13.8232 27.1752C14.0885 27.1752 14.3428 27.0698 14.5303 26.8823C14.7179 26.6948 14.8232 26.4404 14.8232 26.1752V21.1752C14.8232 20.3795 15.1393 19.6165 15.7019 19.0539C16.2645 18.4913 17.0276 18.1752 17.8232 18.1752C18.6189 18.1752 19.382 18.4913 19.9446 19.0539C20.5072 19.6165 20.8232 20.3795 20.8232 21.1752V26.1752C20.8232 26.4404 20.9286 26.6948 21.1161 26.8823C21.3037 27.0698 21.558 27.1752 21.8232 27.1752C22.0885 27.1752 22.3428 27.0698 22.5303 26.8823C22.7179 26.6948 22.8232 26.4404 22.8232 26.1752V21.1752C22.8239 20.064 22.4525 18.9845 21.7682 18.1089C23.4445 17.879 24.981 17.0502 26.094 15.7758C27.2069 14.5013 27.8211 12.8672 27.8232 11.1752V10.1752C27.8108 8.93241 27.4798 7.71358 26.862 6.63519ZM25.8232 11.1752C25.8232 12.5013 25.2965 13.773 24.3588 14.7107C23.4211 15.6484 22.1493 16.1752 20.8232 16.1752H14.8232C13.4972 16.1752 12.2254 15.6484 11.2877 14.7107C10.35 13.773 9.82324 12.5013 9.82324 11.1752V10.1752C9.8355 9.17522 10.1349 8.19984 10.6857 7.36519C10.7884 7.22984 10.8549 7.07056 10.879 6.90237C10.9031 6.73419 10.8839 6.56265 10.8232 6.40394C10.5628 5.73218 10.4374 5.01563 10.4544 4.29535C10.4713 3.57506 10.6302 2.8652 10.922 2.20644C11.7404 2.29448 12.5285 2.56558 13.2278 2.99965C13.9272 3.43372 14.5199 4.01963 14.962 4.71394C15.0521 4.85482 15.1761 4.97086 15.3226 5.05144C15.4691 5.13202 15.6335 5.17457 15.8007 5.17519H19.8445C20.0124 5.17519 20.1775 5.13294 20.3247 5.05234C20.472 4.97173 20.5966 4.85535 20.687 4.71394C21.129 4.01957 21.7217 3.43361 22.4211 2.99953C23.1205 2.56546 23.9086 2.29439 24.727 2.20644C25.0184 2.86536 25.1769 3.57531 25.1934 4.2956C25.2099 5.01588 25.0841 5.73235 24.8232 6.40394C24.7628 6.56113 24.7426 6.73093 24.7644 6.89792C24.7862 7.06491 24.8494 7.22381 24.9482 7.36019C25.5046 8.19484 25.8084 9.17223 25.8232 10.1752V11.1752Z" fill="white"/>
</svg>
