<svg width="95" height="95" viewBox="0 0 95 95" fill="none" xmlns="http://www.w3.org/2000/svg">
<path d="M47.5001 94.5834C41.0654 94.5834 34.9838 93.3467 29.2553 90.8733C23.5268 88.3998 18.525 85.0255 14.2498 80.7503C9.97153 76.4752 6.59722 71.4733 4.12691 65.7449C1.65661 60.0164 0.419887 53.9348 0.416748 47.5001C0.416748 40.9869 1.65347 34.8865 4.12691 29.1988C6.60036 23.5111 9.97467 18.5281 14.2498 14.2498C18.525 9.97153 23.5252 6.59722 29.2506 4.12692C34.9759 1.65661 41.0591 0.419887 47.5001 0.416748C54.0133 0.416748 60.1153 1.65347 65.8061 4.12692C71.4969 6.60036 76.4783 9.97467 80.7503 14.2498C85.0286 18.525 88.4029 23.508 90.8732 29.1988C93.3435 34.8896 94.5803 40.99 94.5834 47.5001C94.5834 53.9348 93.3467 60.0164 90.8732 65.7449C88.3998 71.4733 85.0255 76.4767 80.7503 80.755C76.4752 85.0302 71.4922 88.4045 65.8014 90.878C60.1106 93.3514 54.0101 94.5866 47.5001 94.5834ZM47.5001 84.9313C49.5404 82.1063 51.306 79.1636 52.797 76.1032C54.2879 73.0428 55.5042 69.7862 56.4459 66.3334H38.5542C39.4959 69.7862 40.7122 73.0428 42.2032 76.1032C43.6942 79.1636 45.4598 82.1063 47.5001 84.9313ZM35.2584 83.048C33.8459 80.4584 32.6108 77.77 31.553 74.9826C30.4951 72.1953 29.6116 69.3122 28.9022 66.3334H15.0126C17.2883 70.257 20.1337 73.6706 23.5488 76.574C26.9639 79.4775 30.8671 81.6355 35.2584 83.048ZM59.7417 83.048C64.1362 81.6355 68.041 79.4775 71.4561 76.574C74.8712 73.6706 77.715 70.257 79.9876 66.3334H66.098C65.3917 69.3154 64.5097 72.2 63.4519 74.9873C62.3941 77.7747 61.1574 80.4616 59.7417 83.048ZM11.0105 56.9167H27.0188C26.7834 55.3473 26.6076 53.7983 26.4915 52.2696C26.3754 50.741 26.3157 49.1511 26.3126 47.5001C26.3126 45.8522 26.3722 44.2639 26.4915 42.7352C26.6108 41.2066 26.7866 39.656 27.0188 38.0834H11.0105C10.6181 39.6529 10.3247 41.2035 10.13 42.7352C9.93543 44.267 9.83655 45.8553 9.83341 47.5001C9.83341 49.148 9.93229 50.7378 10.13 52.2696C10.3278 53.8014 10.6213 55.3504 11.0105 56.9167ZM36.4355 56.9167H58.5647C58.8001 55.3473 58.9774 53.7983 59.0967 52.2696C59.216 50.741 59.274 49.1511 59.2709 47.5001C59.2709 45.8522 59.2113 44.2639 59.092 42.7352C58.9727 41.2066 58.7969 39.656 58.5647 38.0834H36.4355C36.2001 39.6529 36.0243 41.2035 35.9082 42.7352C35.792 44.267 35.7324 45.8553 35.7292 47.5001C35.7292 49.148 35.7889 50.7378 35.9082 52.2696C36.0274 53.8014 36.2032 55.3504 36.4355 56.9167ZM67.9813 56.9167H83.9897C84.382 55.3473 84.6771 53.7983 84.8748 52.2696C85.0726 50.741 85.1699 49.1511 85.1667 47.5001C85.1667 45.8522 85.0694 44.2639 84.8748 42.7352C84.6802 41.2066 84.3852 39.656 83.9897 38.0834H67.9813C68.2167 39.6529 68.3941 41.2035 68.5134 42.7352C68.6326 44.267 68.6907 45.8553 68.6876 47.5001C68.6876 49.148 68.6279 50.7378 68.5087 52.2696C68.3894 53.8014 68.2136 55.3504 67.9813 56.9167ZM66.098 28.6667H79.9876C77.7119 24.7431 74.868 21.3296 71.4561 18.4261C68.0441 15.5227 64.1393 13.3647 59.7417 11.9522C61.1542 14.5417 62.391 17.2302 63.4519 20.0175C64.5129 22.8049 65.3949 25.6879 66.098 28.6667ZM38.5542 28.6667H56.4459C55.5042 25.214 54.2879 21.9574 52.797 18.897C51.306 15.8365 49.5404 12.8938 47.5001 10.0688C45.4598 12.8938 43.6942 15.8365 42.2032 18.897C40.7122 21.9574 39.4959 25.214 38.5542 28.6667ZM15.0126 28.6667H28.9022C29.6084 25.6848 30.492 22.8002 31.553 20.0128C32.6139 17.2255 33.849 14.5386 35.2584 11.9522C30.864 13.3647 26.9592 15.5227 23.5441 18.4261C20.129 21.3296 17.2851 24.7431 15.0126 28.6667Z" fill="black"/>
</svg>
